<svg id="iseazy-skills-logo" xmlns="http://www.w3.org/2000/svg" width="1393.502" height="210.696" viewBox="0 0 1393.502 210.696">
  <g id="Grupo_42" data-name="Grupo 42" transform="translate(0 43.038)">
    <path id="Trazado_62" data-name="Trazado 62" d="M1817.244,279.37h36.914a4.186,4.186,0,0,1,4.125,3.07c1.84,7.614,9.718,10.93,18.925,10.93,9.8,0,17.361-4.481,17.361-10.921,0-4.2-2.239-7.28-6.44-9.24s-13.16-4.48-26.323-7.563q-50.4-11.758-50.4-43.681,0-19.744,17.641-31.083c11.762-7.56,26.881-11.481,45.643-11.481,34.566,0,59.554,12.843,65.171,35.652a7.921,7.921,0,0,1-7.759,9.712h-35.163a4.216,4.216,0,0,1-4.156-3.194c-1.719-7.642-8.8-11.366-16.973-11.366-8.679,0-15.962,3.921-15.962,10.64,0,8.96,9.243,12.322,33.6,16.8,34.443,6.722,51.8,20.723,51.8,42.283,0,14.282-6.16,25.482-18.2,33.882-12.039,8.121-28,12.322-47.883,12.322-37.71,0-63.992-13.19-69.687-37.037A7.943,7.943,0,0,1,1817.244,279.37Z" transform="translate(-1753.672 -178.888)" fill="#333"/>
    <path id="Trazado_63" data-name="Trazado 63" d="M2080.508,305.132c-14.562-13.722-21.842-31.362-21.842-52.366,0-21.28,7.279-38.922,21.842-52.643,14.841-13.722,31.084-20.722,49.284-20.722,17.92,0,36.964,8.4,43.964,21h.56l1.182-10.3a7.654,7.654,0,0,1,7.6-6.782h26.943a7.653,7.653,0,0,1,7.649,7.389l.209,5.992q2.019,58.145-.127,116.323l-.064,1.814a7.657,7.657,0,0,1-7.649,7.373H2183.1a7.654,7.654,0,0,1-7.6-6.782l-1.182-10.3h-.56c-3.643,6.719-9.521,11.759-18.2,15.4a64.353,64.353,0,0,1-25.761,5.32C2111.592,325.853,2095.349,318.851,2080.508,305.132Zm80.366-29.4a32.473,32.473,0,1,0-45.923,0A32.621,32.621,0,0,0,2160.874,275.73Z" transform="translate(-1695.981 -178.888)" fill="#333"/>
    <path id="Trazado_64" data-name="Trazado 64" d="M2198.288,314.013v-6.621a10.923,10.923,0,0,1,2.4-6.83l58.229-72.537a4.179,4.179,0,0,0-3.26-6.8h-46.825a7.462,7.462,0,0,1-7.464-7.463V190.049a7.463,7.463,0,0,1,7.464-7.463H2321.6a7.462,7.462,0,0,1,7.461,7.463v7.1a9.714,9.714,0,0,1-2.074,6.006l-57.3,72.92a4.18,4.18,0,0,0,3.288,6.761H2324.4a7.465,7.465,0,0,1,7.465,7.463v23.717a7.465,7.465,0,0,1-7.465,7.463H2205.751A7.464,7.464,0,0,1,2198.288,314.013Z" transform="translate(-1663.684 -178.151)" fill="#333"/>
    <path id="Trazado_65" data-name="Trazado 65" d="M2339.511,337.594l18.834-33.467c4.049-7.3,3.787-12.81.158-20.269l-48.2-93.133a5.575,5.575,0,0,1,4.95-8.139h36.561a7.346,7.346,0,0,1,6.657,4.241L2384,241.574a3.942,3.942,0,0,0,7.145,0l28.22-54.461a7.638,7.638,0,0,1,6.641-4.525h33.883a5.576,5.576,0,0,1,4.949,8.14l-77.2,149.581a10.206,10.206,0,0,1-8.92,5.5h-34.3A5.575,5.575,0,0,1,2339.511,337.594Z" transform="translate(-1637.918 -178.151)" fill="#333"/>
    <g id="Grupo_33" data-name="Grupo 33" transform="translate(0 0)">
      <path id="Trazado_66" data-name="Trazado 66" d="M1765.607,310.622l-.709-13.167c-1.083-31.322-1.041-37.861.119-69.18l.58-13.161a4.481,4.481,0,0,1,4.479-4.316h30.395a4.483,4.483,0,0,1,4.48,4.321l.632,12.566c1.128,31.284,1.14,40.267.032,71.551l-.667,11.391a4.482,4.482,0,0,1-4.479,4.324h-30.384A4.481,4.481,0,0,1,1765.607,310.622Z" transform="translate(-1764.116 -171.625)" fill="#333"/>
      <path id="Trazado_67" data-name="Trazado 67" d="M1801.863,206.116l-.054.005a130.011,130.011,0,0,1-33.551-.033l-.087-.014a3.821,3.821,0,0,1-3.435-3.874V183.973a3.9,3.9,0,0,1,3.521-3.887l.03,0a129.823,129.823,0,0,1,33.513-.023l.207.027a3.909,3.909,0,0,1,3.521,3.887V202.2A4.015,4.015,0,0,1,1801.863,206.116Z" transform="translate(-1763.972 -178.985)" fill="#333"/>
    </g>
    <path id="Trazado_68" data-name="Trazado 68" d="M1975.581,265.369h92.442a12.671,12.671,0,0,0,12.888-14.44c-2.269-18.3-9.03-33.93-20.42-46.885-14.282-16.523-33.044-24.642-56.563-24.642-22.123,0-40.885,7.282-56.286,21.56-15.12,14.282-22.68,31.924-22.68,52.367,0,20.719,7.839,38.081,23.241,52.082,15.681,13.722,34.44,20.722,56.282,20.722a85.821,85.821,0,0,0,45.084-12.322,71.06,71.06,0,0,0,15.755-12.708c.046-.038.108-.039.15-.085,6.478-7.281,7.76-9.486,10.941-15.888a5.918,5.918,0,0,0-5.291-8.555h-33.937a7.577,7.577,0,0,0-2.947.652.214.214,0,0,0-.021.015,5.814,5.814,0,0,0-2.346,1.945q-7.482,10.543-26.828,10.542c-14.516,0-27.588-6.421-32.569-19.8A3.35,3.35,0,0,1,1975.581,265.369Zm-3.57-30.6c4.867-13.019,15.807-19.525,31.916-19.525,15.613,0,26.456,6.474,30.655,19.592a2.312,2.312,0,0,1-2.133,3.089h-58.332A2.3,2.3,0,0,1,1972.011,234.77Z" transform="translate(-1726.909 -178.888)" fill="#333"/>
  </g>
  <path id="Trazado_862" data-name="Trazado 862" d="M57.921,121.084a99.5,99.5,0,0,1-31.674-5.015Q11.2,111.054,2.755,103.4L8.826,92.841q8.447,7.127,21.776,11.878a82.319,82.319,0,0,0,27.847,4.751q20.852,0,30.751-6.863a21.868,21.868,0,0,0,9.9-19q0-8.71-5.411-13.726a33.368,33.368,0,0,0-13.33-7.391q-7.919-2.376-21.908-5.015a182.947,182.947,0,0,1-26.4-6.335A41.364,41.364,0,0,1,14.9,40.051Q7.77,32.4,7.77,18.934q0-16.365,13.594-27.055t38.669-10.69a94.686,94.686,0,0,1,26.131,3.7q12.934,3.7,21.116,9.766L101.21,5.209A63.063,63.063,0,0,0,81.941-4.03,78.532,78.532,0,0,0,59.769-7.2Q40.5-7.2,30.734-.071T20.968,18.67q0,9.238,5.543,14.386A34.885,34.885,0,0,0,40.1,40.71q8.051,2.508,22.568,5.411a193.594,193.594,0,0,1,26,6.2,39.518,39.518,0,0,1,16.761,10.69q6.863,7.391,6.863,20.324,0,17.157-14.254,27.451T57.921,121.084Zm123.614-74.7-35.9,32.73v40.913h-13.2V-67.49h13.2V62.751L233.8-17.755h16.893L191.3,37.939l65.2,82.09H240.133ZM276.8-17.755h13.2V120.029H276.8Zm6.6-25.187a10.662,10.662,0,0,1-7.655-3.035,10,10,0,0,1-3.167-7.523,10.429,10.429,0,0,1,3.167-7.655,10.429,10.429,0,0,1,7.655-3.167,10.662,10.662,0,0,1,7.655,3.035,10,10,0,0,1,3.167,7.523,10.429,10.429,0,0,1-3.167,7.655A10.429,10.429,0,0,1,283.394-42.942ZM356.44,121.084q-17.421,0-26.659-9.9t-9.238-27.319V-67.49h13.2V82.283q0,13.462,6.071,20.456t18.213,6.995a33.985,33.985,0,0,0,13.2-2.64l1.056,11.086A42.921,42.921,0,0,1,356.44,121.084Zm61.849,0q-17.421,0-26.659-9.9t-9.238-27.319V-67.49h13.2V82.283q0,13.462,6.071,20.456t18.213,6.995a33.984,33.984,0,0,0,13.2-2.64l1.056,11.086A42.921,42.921,0,0,1,418.288,121.084Zm80.242,0a99.5,99.5,0,0,1-31.674-5.015q-15.045-5.015-23.492-12.67l6.071-10.558q8.446,7.127,21.776,11.878a82.318,82.318,0,0,0,27.847,4.751q20.852,0,30.751-6.863a21.868,21.868,0,0,0,9.9-19q0-8.71-5.411-13.726a33.368,33.368,0,0,0-13.33-7.391q-7.919-2.376-21.908-5.015a182.951,182.951,0,0,1-26.4-6.335,41.365,41.365,0,0,1-17.157-11.086q-7.127-7.655-7.127-21.116,0-16.365,13.594-27.055t38.669-10.69a94.688,94.688,0,0,1,26.132,3.7q12.934,3.7,21.116,9.766L541.819,5.209A63.064,63.064,0,0,0,522.55-4.03,78.532,78.532,0,0,0,500.378-7.2q-19.269,0-29.035,7.127T461.577,18.67q0,9.238,5.543,14.386a34.886,34.886,0,0,0,13.594,7.655q8.051,2.508,22.568,5.411a193.6,193.6,0,0,1,26,6.2,39.517,39.517,0,0,1,16.761,10.69q6.863,7.391,6.863,20.324,0,17.157-14.254,27.451T498.53,121.084Z" transform="translate(840.597 67.49)" fill="#333"/>
</svg>
