<svg id="iseazy-author-logo-white" xmlns="http://www.w3.org/2000/svg" width="1610.575" height="209.478" viewBox="0 0 1610.575 209.478">
  <g id="Logotype" transform="translate(0 42.37)">
    <path id="Trazado_62" data-name="Trazado 62" d="M1817.217,279.042h36.792a4.173,4.173,0,0,1,4.113,3.06c1.834,7.589,9.687,10.895,18.862,10.895,9.772,0,17.305-4.466,17.305-10.885,0-4.186-2.23-7.256-6.419-9.21s-13.117-4.465-26.235-7.538q-50.235-11.719-50.238-43.537,0-19.679,17.584-30.981c11.721-7.535,26.791-11.443,45.494-11.443,34.451,0,59.357,12.8,64.956,35.535a7.9,7.9,0,0,1-7.734,9.679h-35.048a4.2,4.2,0,0,1-4.142-3.184c-1.713-7.616-8.769-11.329-16.917-11.329-8.651,0-15.912,3.908-15.912,10.6,0,8.931,9.214,12.281,33.5,16.746,34.329,6.7,51.634,20.655,51.634,42.145,0,14.235-6.141,25.4-18.143,33.771-12,8.094-27.91,12.281-47.727,12.281-37.586,0-63.782-13.147-69.458-36.915A7.918,7.918,0,0,1,1817.217,279.042Z" transform="translate(-1753.854 -178.89)" fill="#fff"/>
    <path id="Trazado_63" data-name="Trazado 63" d="M2080.434,304.719c-14.516-13.677-21.768-31.259-21.768-52.194,0-21.21,7.252-38.794,21.768-52.47,14.791-13.677,30.98-20.654,49.123-20.654,17.858,0,36.841,8.374,43.817,20.932h.561l1.176-10.265a7.63,7.63,0,0,1,7.581-6.76h26.855a7.631,7.631,0,0,1,7.625,7.365l.2,5.972q2.013,57.954-.125,115.941l-.063,1.808a7.633,7.633,0,0,1-7.625,7.349h-26.87a7.63,7.63,0,0,1-7.581-6.76l-1.176-10.265h-.561c-3.63,6.7-9.49,11.72-18.142,15.351a64.154,64.154,0,0,1-25.675,5.3C2111.415,325.372,2095.225,318.393,2080.434,304.719Zm80.1-29.305a32.367,32.367,0,1,0-45.772,0A32.516,32.516,0,0,0,2160.536,275.414Z" transform="translate(-1697.172 -178.89)" fill="#fff"/>
    <path id="Trazado_64" data-name="Trazado 64" d="M2198.288,313.582v-6.6a10.87,10.87,0,0,1,2.395-6.808l58.039-72.3a4.167,4.167,0,0,0-3.251-6.773H2208.8a7.44,7.44,0,0,1-7.443-7.439v-23.64a7.44,7.44,0,0,1,7.443-7.439H2321.19a7.439,7.439,0,0,1,7.438,7.439V197.1a9.682,9.682,0,0,1-2.071,5.987l-57.105,72.681a4.164,4.164,0,0,0,3.273,6.739h51.257a7.44,7.44,0,0,1,7.439,7.439v23.64a7.44,7.44,0,0,1-7.439,7.438H2205.725A7.438,7.438,0,0,1,2198.288,313.582Z" transform="translate(-1665.44 -178.166)" fill="#fff"/>
    <path id="Trazado_65" data-name="Trazado 65" d="M2339.412,337.085l18.771-33.357c4.036-7.278,3.775-12.768.159-20.2L2310.3,190.7a5.559,5.559,0,0,1,4.936-8.112h36.443a7.321,7.321,0,0,1,6.633,4.227l25.448,54.567a3.928,3.928,0,0,0,7.12,0l28.136-54.282a7.6,7.6,0,0,1,6.613-4.51H2459.4a5.559,5.559,0,0,1,4.937,8.113l-76.944,149.09a10.173,10.173,0,0,1-8.891,5.484h-34.187A5.559,5.559,0,0,1,2339.412,337.085Z" transform="translate(-1640.123 -178.166)" fill="#fff"/>
    <g id="Grupo_33" data-name="Grupo 33" transform="translate(0 0)">
      <path id="Trazado_66" data-name="Trazado 66" d="M1765.6,310.294l-.708-13.123c-1.078-31.219-1.035-37.736.119-68.953l.579-13.118a4.467,4.467,0,0,1,4.463-4.3h30.3a4.466,4.466,0,0,1,4.464,4.306l.631,12.524c1.125,31.181,1.136,40.134.032,71.316l-.665,11.354a4.467,4.467,0,0,1-4.464,4.31h-30.283A4.467,4.467,0,0,1,1765.6,310.294Z" transform="translate(-1764.115 -171.754)" fill="#fff"/>
      <path id="Trazado_67" data-name="Trazado 67" d="M1801.741,206.027l-.054.005a129.589,129.589,0,0,1-33.442-.033l-.084-.014a3.808,3.808,0,0,1-3.424-3.861V183.957a3.882,3.882,0,0,1,3.509-3.875l.031,0a129.387,129.387,0,0,1,33.4-.023l.207.027a3.9,3.9,0,0,1,3.51,3.875v18.167A4,4,0,0,1,1801.741,206.027Z" transform="translate(-1763.974 -178.985)" fill="#fff"/>
    </g>
    <path id="Trazado_68" data-name="Trazado 68" d="M1975.413,265.087h92.14a12.628,12.628,0,0,0,12.844-14.392c-2.26-18.242-9-33.819-20.354-46.731-14.233-16.469-32.934-24.562-56.378-24.562-22.046,0-40.75,7.258-56.1,21.49-15.069,14.235-22.6,31.819-22.6,52.195,0,20.651,7.813,37.956,23.163,51.911,15.631,13.677,34.327,20.654,56.1,20.654a85.548,85.548,0,0,0,44.938-12.281,70.858,70.858,0,0,0,15.7-12.667c.047-.038.109-.039.15-.085,6.457-7.257,7.734-9.455,10.9-15.836a5.9,5.9,0,0,0-5.273-8.527h-33.825a7.551,7.551,0,0,0-2.937.65.136.136,0,0,0-.021.015,5.79,5.79,0,0,0-2.339,1.939q-7.458,10.508-26.739,10.508c-14.466,0-27.5-6.4-32.463-19.737A3.339,3.339,0,0,1,1975.413,265.087Zm-3.557-30.5c4.85-12.976,15.756-19.461,31.81-19.461,15.564,0,26.37,6.453,30.556,19.528a2.3,2.3,0,0,1-2.126,3.079h-58.142A2.3,2.3,0,0,1,1971.856,234.588Z" transform="translate(-1727.559 -178.89)" fill="#fff"/>
  </g>
  <path id="Trazado_861" data-name="Trazado 861" d="M142.017-18.61V116.807H129.1V84.9a58.527,58.527,0,0,1-22.938,24.385q-14.764,8.561-33.484,8.561a69.307,69.307,0,0,1-34.8-8.82A63.637,63.637,0,0,1,13.487,84.639Q4.655,69.074,4.655,49.1t8.832-35.67A62.48,62.48,0,0,1,37.875-10.957a70.123,70.123,0,0,1,34.8-8.691,64.3,64.3,0,0,1,33.088,8.561A61.4,61.4,0,0,1,128.834,12.78V-18.61ZM73.468,106.171a55.447,55.447,0,0,0,28.342-7.264,52.542,52.542,0,0,0,19.774-20.235q7.25-12.971,7.25-29.574t-7.25-29.574A52.541,52.541,0,0,0,101.81-.71,55.446,55.446,0,0,0,73.468-7.974,55.446,55.446,0,0,0,45.125-.71,52.541,52.541,0,0,0,25.352,19.525Q18.1,32.5,18.1,49.1t7.25,29.574A52.542,52.542,0,0,0,45.125,98.907,55.447,55.447,0,0,0,73.468,106.171ZM291.631-18.61V116.807H278.976V87.752a50.53,50.53,0,0,1-20.3,22.18q-13.446,7.912-31.638,7.912-26.892,0-42.184-14.787T169.561,60.513V-18.61h13.183V59.475q0,22.829,11.864,34.762t33.484,11.933q23.2,0,36.779-14.268t13.578-38.394V-18.61Zm93.457,126.856a33.26,33.26,0,0,1-12.523,7.134,50.01,50.01,0,0,1-15.687,2.465q-17.928,0-27.683-9.728t-9.755-27.109V-48.184h13.182V-18.61h43.766V-7.455H332.622V79.71q0,13.23,6.459,20.105T358.2,106.69q12.919,0,21.356-7.523ZM473.254-19.648q25.838,0,40.866,14.787t15.028,42.545v79.123H515.965V38.722q0-22.829-11.732-34.762T471.408-7.974q-24.256,0-38.229,14.268T419.206,44.689v72.119H406.023V-67.49h13.183V9.667A50.074,50.074,0,0,1,440.3-11.995Q454.271-19.648,473.254-19.648ZM619.33,117.845a70.561,70.561,0,0,1-35.2-8.82,64.054,64.054,0,0,1-24.651-24.515q-8.964-15.695-8.964-35.411t8.964-35.411a64.054,64.054,0,0,1,24.651-24.515,74.637,74.637,0,0,1,70.394,0,64.053,64.053,0,0,1,24.651,24.515q8.964,15.695,8.964,35.411t-8.964,35.411a64.053,64.053,0,0,1-24.651,24.515A70.56,70.56,0,0,1,619.33,117.845Zm0-11.674a55.446,55.446,0,0,0,28.342-7.264,52.542,52.542,0,0,0,19.774-20.235Q674.7,65.7,674.7,49.1t-7.25-29.574A52.541,52.541,0,0,0,647.672-.71a58.926,58.926,0,0,0-56.685,0,52.542,52.542,0,0,0-19.774,20.235q-7.25,12.971-7.25,29.574t7.25,29.574a52.542,52.542,0,0,0,19.774,20.235A55.446,55.446,0,0,0,619.33,106.171ZM723.486,10.964a47.08,47.08,0,0,1,19.774-22.7q13.446-7.912,32.693-7.912V-6.936L772.788-7.2q-22.938,0-35.856,14.138t-12.919,39.3v70.562H710.83V-18.61h12.655Z" transform="translate(834.623 67.49)" fill="#fff"/>
</svg>
