<svg id="iseazy-logo-white-color" xmlns="http://www.w3.org/2000/svg" width="1161.913" height="207.424" viewBox="0 0 1161.913 207.424">
  <g id="Logotype" transform="translate(334.867 31.672)">
    <path id="Trazado_62" data-name="Trazado 62" d="M1817.238,279.309h36.89a4.183,4.183,0,0,1,4.125,3.068c1.839,7.61,9.712,10.924,18.912,10.924,9.8,0,17.352-4.478,17.352-10.914,0-4.2-2.236-7.275-6.439-9.234s-13.15-4.477-26.3-7.558Q1811.4,253.844,1811.4,221.94q0-19.732,17.629-31.064c11.755-7.556,26.865-11.474,45.616-11.474,34.544,0,59.517,12.835,65.132,35.63a7.919,7.919,0,0,1-7.757,9.706h-35.141a4.214,4.214,0,0,1-4.153-3.192c-1.718-7.637-8.792-11.359-16.963-11.359-8.674,0-15.953,3.918-15.953,10.633,0,8.955,9.239,12.315,33.586,16.791,34.42,6.718,51.771,20.711,51.771,42.258,0,14.273-6.157,25.467-18.192,33.862-12.032,8.116-27.983,12.314-47.854,12.314-37.688,0-63.954-13.182-69.645-37.015A7.941,7.941,0,0,1,1817.238,279.309Z" transform="translate(-1753.709 -178.888)" fill="#fff"/>
    <path id="Trazado_63" data-name="Trazado 63" d="M2080.495,305.055c-14.557-13.713-21.829-31.343-21.829-52.333,0-21.267,7.271-38.9,21.829-52.611,14.827-13.713,31.063-20.709,49.249-20.709,17.912,0,36.943,8.4,43.938,20.989h.561l1.183-10.293a7.646,7.646,0,0,1,7.6-6.778h26.928a7.651,7.651,0,0,1,7.646,7.385l.206,5.988q2.015,58.109-.123,116.252l-.068,1.813a7.651,7.651,0,0,1-7.647,7.369h-26.941a7.646,7.646,0,0,1-7.6-6.778l-1.183-10.293h-.561c-3.639,6.715-9.514,11.752-18.191,15.392a64.319,64.319,0,0,1-25.747,5.316C2111.558,325.763,2095.321,318.766,2080.495,305.055Zm80.314-29.383a32.454,32.454,0,1,0-45.9,0A32.6,32.6,0,0,0,2160.809,275.672Z" transform="translate(-1696.197 -178.888)" fill="#fff"/>
    <path id="Trazado_64" data-name="Trazado 64" d="M2198.287,313.933v-6.617a10.888,10.888,0,0,1,2.4-6.826L2258.878,228a4.175,4.175,0,0,0-3.254-6.791h-46.8a7.461,7.461,0,0,1-7.458-7.458v-23.7a7.461,7.461,0,0,1,7.458-7.459h112.7a7.458,7.458,0,0,1,7.457,7.459v7.092a9.715,9.715,0,0,1-2.074,6l-57.265,72.876a4.178,4.178,0,0,0,3.285,6.757h51.4a7.457,7.457,0,0,1,7.456,7.458v23.7a7.457,7.457,0,0,1-7.456,7.458H2205.742A7.455,7.455,0,0,1,2198.287,313.933Z" transform="translate(-1664.011 -178.154)" fill="#fff"/>
    <path id="Trazado_65" data-name="Trazado 65" d="M2339.492,337.5l18.822-33.447c4.048-7.3,3.784-12.8.157-20.257L2310.3,190.72a5.573,5.573,0,0,1,4.952-8.134h36.537a7.342,7.342,0,0,1,6.651,4.238l25.516,54.713a3.941,3.941,0,0,0,7.142,0l28.208-54.428a7.625,7.625,0,0,1,6.634-4.522H2459.8a5.572,5.572,0,0,1,4.949,8.135l-77.153,149.49a10.2,10.2,0,0,1-8.913,5.5H2344.4A5.572,5.572,0,0,1,2339.492,337.5Z" transform="translate(-1638.331 -178.154)" fill="#fff"/>
    <g id="Grupo_33" data-name="Grupo 33" transform="translate(0 0)">
      <path id="Trazado_66" data-name="Trazado 66" d="M1765.606,310.561l-.712-13.158c-1.08-31.3-1.039-37.838.121-69.138l.581-13.153a4.48,4.48,0,0,1,4.477-4.313h30.375a4.48,4.48,0,0,1,4.479,4.318l.632,12.558c1.127,31.265,1.137,40.242.031,71.507l-.667,11.384a4.479,4.479,0,0,1-4.476,4.321h-30.363A4.479,4.479,0,0,1,1765.606,310.561Z" transform="translate(-1764.114 -171.65)" fill="#fff"/>
      <path id="Trazado_67" data-name="Trazado 67" d="M1801.839,206.1l-.054,0a129.938,129.938,0,0,1-33.533-.033l-.085-.013a3.818,3.818,0,0,1-3.432-3.872V183.97a3.891,3.891,0,0,1,3.517-3.885l.033,0a129.74,129.74,0,0,1,33.493-.023l.207.027a3.907,3.907,0,0,1,3.518,3.885v18.216A4.013,4.013,0,0,1,1801.839,206.1Z" transform="translate(-1763.967 -178.984)" fill="#fff"/>
    </g>
    <path id="Trazado_68" data-name="Trazado 68" d="M1975.55,265.317h92.386a12.661,12.661,0,0,0,12.878-14.431c-2.268-18.291-9.022-33.909-20.408-46.856-14.274-16.513-33.023-24.627-56.53-24.627-22.107,0-40.858,7.277-56.251,21.547-15.11,14.273-22.666,31.9-22.666,52.334,0,20.707,7.834,38.058,23.226,52.051,15.672,13.714,34.421,20.709,56.25,20.709a85.772,85.772,0,0,0,45.058-12.314,71.114,71.114,0,0,0,15.746-12.7c.042-.038.107-.039.147-.085,6.475-7.276,7.755-9.48,10.934-15.878a5.913,5.913,0,0,0-5.286-8.55h-33.917a7.57,7.57,0,0,0-2.945.652c-.007,0-.012.011-.018.015a5.809,5.809,0,0,0-2.348,1.944q-7.478,10.536-26.81,10.536c-14.507,0-27.571-6.418-32.551-19.79A3.349,3.349,0,0,1,1975.55,265.317Zm-3.567-30.581c4.863-13.011,15.8-19.513,31.894-19.513,15.606,0,26.442,6.47,30.637,19.581a2.309,2.309,0,0,1-2.131,3.088h-58.3A2.3,2.3,0,0,1,1971.983,234.736Z" transform="translate(-1727.026 -178.888)" fill="#fff"/>
  </g>
  <g id="Grupo_63" data-name="Grupo 63" transform="translate(0 0)">
    <g id="Grupo_28" data-name="Grupo 28" transform="translate(0)">
      <path id="Trazado_53" data-name="Trazado 53" d="M447.174,651.328c-12.049,12.021-32.236,25.06-46.107,25.06a50.148,50.148,0,0,1-35.491-14.645l-.078-.078-21.272-21.224-37.639-37.552a40.256,40.256,0,0,0-56.841,0h0a40.038,40.038,0,0,0,0,56.712L315.8,725.51a40.259,40.259,0,0,0,56.842,0h0Z" transform="translate(-237.973 -529.832)" fill="#eb1c79"/>
      <path id="Trazado_54" data-name="Trazado 54" d="M809.84,373.184h0a40.258,40.258,0,0,0-56.842,0l-35.126,35.047L663.144,463.15l21.351,21.3a50.146,50.146,0,0,0,35.49,14.645c13.872,0,22.333-1.52,31.426-10.588L809.84,429.9A40.037,40.037,0,0,0,809.84,373.184Z" transform="translate(-547.656 -361.438)" fill="#eb1c79"/>
    </g>
  </g>
</svg>
