<svg id="iseazy-lms-logo-white" xmlns="http://www.w3.org/2000/svg" width="1286.94" height="213.483" viewBox="0 0 1286.94 213.483">
  <g id="Grupo_48" data-name="Grupo 48" transform="translate(0)">
    <g id="Grupo_43" data-name="Grupo 43" transform="translate(0 45.817)">
      <path id="Trazado_62-5" data-name="Trazado 62-5" d="M477.622,994.052h36.914a4.2,4.2,0,0,1,4.125,3.071c1.839,7.615,9.718,10.93,18.925,10.93,9.8,0,17.361-4.48,17.361-10.921a9.816,9.816,0,0,0-6.441-9.24,168.831,168.831,0,0,0-26.323-7.563q-50.4-11.757-50.4-43.692,0-19.747,17.642-31.083c11.762-7.561,26.881-11.481,45.644-11.481,34.559,0,59.554,12.836,65.168,35.653a7.925,7.925,0,0,1-7.761,9.711H557.309a4.22,4.22,0,0,1-4.157-3.194c-1.728-7.652-8.8-11.355-16.973-11.355-8.679,0-15.964,3.92-15.964,10.639,0,8.961,9.242,12.322,33.606,16.8,34.442,6.721,51.805,20.735,51.805,42.285,0,14.283-6.171,25.482-18.2,33.883-12.039,8.121-28,12.322-47.888,12.322-37.711,0-63.992-13.189-69.687-37.027a7.946,7.946,0,0,1,5.941-9.536A8.064,8.064,0,0,1,477.622,994.052Z" transform="translate(-414.039 -893.571)" fill="#fff"/>
      <path id="Trazado_63-5" data-name="Trazado 63-5" d="M615.887,1019.81c-14.564-13.722-21.841-31.362-21.841-52.366,0-21.28,7.279-38.922,21.841-52.642,14.84-13.722,31.083-20.723,49.283-20.723,17.922,0,36.965,8.393,43.967,21h.56l1.183-10.3A7.655,7.655,0,0,1,718.486,898H745.43a7.654,7.654,0,0,1,7.652,7.388l.206,5.99q2.017,58.144-.126,116.325l-.065,1.814a7.653,7.653,0,0,1-7.652,7.374H718.484a7.649,7.649,0,0,1-7.6-6.784l-1.183-10.3h-.563a34.749,34.749,0,0,1-18.2,15.4,64.352,64.352,0,0,1-25.764,5.32C646.97,1040.532,630.727,1033.542,615.887,1019.81Zm80.368-29.4a32.475,32.475,0,1,0-45.925-.012l.012.012a32.623,32.623,0,0,0,45.913,0Z" transform="translate(-231.354 -893.564)" fill="#fff"/>
      <path id="Trazado_64-5" data-name="Trazado 64-5" d="M663.694,1027.094v-6.621a10.922,10.922,0,0,1,2.4-6.83L724.325,941.1a4.179,4.179,0,0,0-3.261-6.8H674.238a7.459,7.459,0,0,1-7.462-7.46V903.129a7.462,7.462,0,0,1,7.46-7.462H787a7.464,7.464,0,0,1,7.462,7.462v7.1a9.707,9.707,0,0,1-2.078,6.006l-57.3,72.921a4.18,4.18,0,0,0,3.286,6.761H789.8a7.463,7.463,0,0,1,7.465,7.462v23.717a7.464,7.464,0,0,1-7.465,7.462H671.152A7.464,7.464,0,0,1,663.694,1027.094Z" transform="translate(-129.078 -891.231)" fill="#fff"/>
      <path id="Trazado_65-5" data-name="Trazado 65-5" d="M749.095,1050.68l18.834-33.468c4.048-7.3,3.786-12.811.161-20.268l-48.207-93.136a5.576,5.576,0,0,1,4.952-8.146H761.4a7.343,7.343,0,0,1,6.665,4.241L793.6,954.652a3.95,3.95,0,0,0,7.144,0l28.224-54.462a7.639,7.639,0,0,1,6.638-4.525h33.882a5.577,5.577,0,0,1,4.954,8.146l-77.2,149.59a10.2,10.2,0,0,1-8.918,5.5H754.007a5.579,5.579,0,0,1-4.912-8.223Z" transform="translate(-47.489 -891.237)" fill="#fff"/>
      <g id="Grupo_33-5" data-name="Grupo 33-5">
        <path id="Trazado_66-5" data-name="Trazado 66-5" d="M448.609,1009.564,447.9,996.4c-1.081-31.322-1.041-37.861.119-69.182l.58-13.162a4.484,4.484,0,0,1,4.48-4.314h30.4a4.483,4.483,0,0,1,4.478,4.32l.632,12.567c1.128,31.285,1.141,40.268.032,71.551l-.667,11.392a4.481,4.481,0,0,1-4.48,4.324H453.087A4.481,4.481,0,0,1,448.609,1009.564Z" transform="translate(-447.116 -870.567)" fill="#fff"/>
        <path id="Trazado_67-5" data-name="Trazado 67-5" d="M484.555,921H484.5a130.05,130.05,0,0,1-33.552-.032l-.086-.014a3.823,3.823,0,0,1-3.436-3.873V898.856a3.894,3.894,0,0,1,3.522-3.887h.03a129.839,129.839,0,0,1,33.515-.025l.208.027a3.91,3.91,0,0,1,3.522,3.888v18.228A4.015,4.015,0,0,1,484.555,921Z" transform="translate(-446.662 -893.87)" fill="#fff"/>
      </g>
      <path id="Trazado_68-5" data-name="Trazado 68-5" d="M577.973,980.057h92.444a12.664,12.664,0,0,0,12.888-14.44,84.952,84.952,0,0,0-20.421-46.886c-14.283-16.524-33.043-24.642-56.565-24.642a79.879,79.879,0,0,0-56.282,21.559,69.571,69.571,0,0,0-22.68,52.369A67.687,67.687,0,0,0,550.6,1020.1a82.716,82.716,0,0,0,56.282,20.723,85.809,85.809,0,0,0,45.086-12.323,71.092,71.092,0,0,0,15.754-12.708c.046-.038.108-.039.148-.084a55.724,55.724,0,0,0,10.943-15.887,5.925,5.925,0,0,0-5.29-8.555H639.583a7.611,7.611,0,0,0-2.948.651l-.02.015a5.857,5.857,0,0,0-2.347,1.945q-7.48,10.541-26.827,10.543c-14.515,0-27.588-6.418-32.572-19.8a3.351,3.351,0,0,1,3.1-4.562Zm-3.57-30.608c4.865-13.019,15.8-19.526,31.916-19.526,15.615,0,26.457,6.475,30.656,19.593a2.312,2.312,0,0,1-2.133,3.09H576.508a2.3,2.3,0,0,1-2.266-2.34,2.351,2.351,0,0,1,.16-.81Z" transform="translate(-329.296 -893.575)" fill="#fff"/>
    </g>
    <path id="Trazado_863" data-name="Trazado 863" d="M830.906,1063.875q-17.422,0-26.66-9.9t-9.24-27.309V875.309h13.2v149.776q0,13.464,6.07,20.457t18.212,7a33.957,33.957,0,0,0,13.2-2.641l1.057,11.086A42.943,42.943,0,0,1,830.906,1063.875ZM1037.731,923.99q25.6,0,40.254,15.057t14.65,43.29v80.5h-13.186V983.379q0-23.227-11.355-35.371t-31.675-12.143q-23.228,0-36.822,14.517T986,989.451v73.381H972.81V983.379q0-23.227-11.354-35.371t-31.679-12.143q-23.226,0-36.822,14.517t-13.594,39.068v73.381H866.173V925.043h12.67v29.563A50.891,50.891,0,0,1,899.3,932.037a62.335,62.335,0,0,1,32.338-8.05,57.362,57.362,0,0,1,31.793,8.448,45.955,45.955,0,0,1,18.612,24.8,53.739,53.739,0,0,1,21.514-24.285A64.117,64.117,0,0,1,1037.731,923.99Zm131.076,139.885a99.479,99.479,0,0,1-31.675-5.016,65.521,65.521,0,0,1-23.492-12.67l6.069-10.558a69.79,69.79,0,0,0,21.777,11.878,82.373,82.373,0,0,0,27.842,4.764q20.855,0,30.752-6.863a21.866,21.866,0,0,0,9.9-19.007,17.788,17.788,0,0,0-5.411-13.725,33.388,33.388,0,0,0-13.33-7.391q-7.916-2.373-21.908-5.016a182.781,182.781,0,0,1-26.4-6.333,41.344,41.344,0,0,1-17.158-11.086q-7.125-7.653-7.127-21.118a33.028,33.028,0,0,1,13.594-27.057q13.6-10.689,38.671-10.692a94.654,94.654,0,0,1,26.131,3.7,65.4,65.4,0,0,1,21.118,9.765l-6.07,10.558a63.067,63.067,0,0,0-19.268-9.24,78.471,78.471,0,0,0-22.173-3.167q-19.269,0-29.036,7.126a22.145,22.145,0,0,0-9.765,18.741,18.671,18.671,0,0,0,5.544,14.386,34.885,34.885,0,0,0,13.594,7.651q8.05,2.507,22.569,5.411a193.657,193.657,0,0,1,26,6.2,39.507,39.507,0,0,1,16.76,10.691q6.866,7.39,6.863,20.326a32.226,32.226,0,0,1-14.253,27.452Q1194.671,1063.877,1168.807,1063.875Z" transform="translate(63.75 -875.309)" fill="#fff"/>
  </g>
</svg>
