<svg id="iseazy-factory-logo-white" xmlns="http://www.w3.org/2000/svg" width="1661.715" height="241.143" viewBox="0 0 1661.715 241.143">
  <g id="iseazyfactory-big-logo-black" transform="translate(0 0)">
    <g id="Grupo_41" data-name="Grupo 41" transform="translate(0 46.937)">
      <path id="Trazado_62" data-name="Trazado 62" d="M477.631,550.6h36.957a4.2,4.2,0,0,1,4.129,3.074c1.842,7.625,9.73,10.944,18.948,10.944,9.814,0,17.381-4.486,17.381-10.933a9.827,9.827,0,0,0-6.448-9.251,169.152,169.152,0,0,0-26.355-7.573q-50.46-11.77-50.463-43.743,0-19.77,17.663-31.119c11.776-7.571,26.914-11.495,45.7-11.495,34.6,0,59.624,12.851,65.244,35.694a7.931,7.931,0,0,1-7.77,9.722H557.412a4.224,4.224,0,0,1-4.162-3.2c-1.73-7.661-8.808-11.368-16.993-11.368-8.69,0-15.983,3.924-15.983,10.652,0,8.971,9.253,12.337,33.646,16.823,34.484,6.729,51.866,20.759,51.866,42.335,0,14.3-6.178,25.511-18.224,33.922-12.053,8.131-28.035,12.338-47.944,12.338-37.755,0-64.068-13.205-69.769-37.071a7.95,7.95,0,0,1,7.782-9.752Z" transform="translate(-413.974 -449.999)" fill="#fff"/>
      <path id="Trazado_63" data-name="Trazado 63" d="M615.913,576.385c-14.582-13.738-21.867-31.4-21.867-52.427,0-21.306,7.288-38.969,21.867-52.7,14.858-13.739,31.119-20.748,49.341-20.748,17.943,0,37.01,8.4,44.018,21.027h.561l1.185-10.311a7.664,7.664,0,0,1,7.617-6.792h26.975a7.663,7.663,0,0,1,7.661,7.4l.2,6q2.022,58.212-.126,116.461l-.064,1.817a7.66,7.66,0,0,1-7.661,7.382H718.631a7.658,7.658,0,0,1-7.614-6.791l-1.185-10.311h-.563A34.787,34.787,0,0,1,691.046,591.8a64.439,64.439,0,0,1-25.794,5.326C647.032,597.133,630.771,590.134,615.913,576.385Zm80.463-29.436a32.514,32.514,0,1,0-45.98-.013l.012.013a32.663,32.663,0,0,0,45.968,0Z" transform="translate(-230.927 -449.992)" fill="#fff"/>
      <path id="Trazado_64" data-name="Trazado 64" d="M663.694,583.677v-6.628a10.935,10.935,0,0,1,2.4-6.839l58.3-72.624a4.184,4.184,0,0,0-3.265-6.8H674.249a7.468,7.468,0,0,1-7.471-7.469V459.566a7.471,7.471,0,0,1,7.469-7.471h112.9a7.473,7.473,0,0,1,7.471,7.471v7.105a9.719,9.719,0,0,1-2.081,6.012l-57.363,73.007a4.184,4.184,0,0,0,3.289,6.769h51.487a7.472,7.472,0,0,1,7.473,7.471v23.745a7.472,7.472,0,0,1-7.473,7.471H671.159A7.471,7.471,0,0,1,663.694,583.677Z" transform="translate(-128.449 -447.654)" fill="#fff"/>
      <path id="Trazado_65" data-name="Trazado 65" d="M749.131,607.291l18.856-33.507c4.053-7.311,3.792-12.826.161-20.292l-48.263-93.245a5.582,5.582,0,0,1,4.958-8.155h36.606a7.355,7.355,0,0,1,6.672,4.245l25.563,54.813a3.954,3.954,0,0,0,7.152,0l28.258-54.526a7.648,7.648,0,0,1,6.646-4.53h33.922a5.582,5.582,0,0,1,4.96,8.156L797.33,610.015a10.213,10.213,0,0,1-8.929,5.508H754.049a5.584,5.584,0,0,1-4.918-8.232Z" transform="translate(-46.698 -447.66)" fill="#fff"/>
      <g id="Grupo_33" data-name="Grupo 33">
        <path id="Trazado_66" data-name="Trazado 66" d="M448.611,566.109l-.712-13.182c-1.082-31.36-1.042-37.906.119-69.263l.581-13.178a4.49,4.49,0,0,1,4.486-4.32h30.433A4.488,4.488,0,0,1,488,470.492l.633,12.582c1.13,31.322,1.142,40.316.032,71.636L488,566.115a4.487,4.487,0,0,1-4.486,4.33H453.094A4.487,4.487,0,0,1,448.611,566.109Z" transform="translate(-447.116 -426.948)" fill="#fff"/>
        <path id="Trazado_67" data-name="Trazado 67" d="M484.6,477.463h-.055a130.162,130.162,0,0,1-33.591-.032l-.086-.015a3.825,3.825,0,0,1-3.44-3.877V455.29a3.9,3.9,0,0,1,3.526-3.892h.03a129.992,129.992,0,0,1,33.554-.025l.208.027a3.913,3.913,0,0,1,3.526,3.892v18.249A4.019,4.019,0,0,1,484.6,477.463Z" transform="translate(-446.661 -450.298)" fill="#fff"/>
      </g>
      <path id="Trazado_68" data-name="Trazado 68" d="M578.032,536.586h92.554a12.683,12.683,0,0,0,12.9-14.457,85.055,85.055,0,0,0-20.446-46.942c-14.3-16.543-33.081-24.671-56.632-24.671A79.972,79.972,0,0,0,550.064,472.1a69.655,69.655,0,0,0-22.707,52.43,67.763,67.763,0,0,0,23.268,52.146,82.812,82.812,0,0,0,56.348,20.747,85.916,85.916,0,0,0,45.139-12.337,71.157,71.157,0,0,0,15.772-12.723c.047-.037.109-.04.148-.084a55.767,55.767,0,0,0,10.956-15.906,5.932,5.932,0,0,0-5.3-8.566H639.716a7.612,7.612,0,0,0-2.951.652l-.019.015a5.854,5.854,0,0,0-2.35,1.947q-7.49,10.553-26.859,10.555c-14.532,0-27.62-6.426-32.611-19.826a3.356,3.356,0,0,1,3.107-4.568Zm-3.573-30.644c4.871-13.034,15.817-19.549,31.952-19.549,15.635,0,26.489,6.482,30.692,19.615a2.315,2.315,0,0,1-2.135,3.094h-58.4a2.308,2.308,0,0,1-2.27-2.343,2.366,2.366,0,0,1,.161-.811Z" transform="translate(-329.063 -450.003)" fill="#fff"/>
    </g>
    <path id="Trazado_860" data-name="Trazado 860" d="M833.854,442.677q-25.9,0-25.9,27.749v11.739h44.132v11.368H808.22V620.115H795.006V469.36q0-17.442,9.91-27.748t28.145-10.306a52.473,52.473,0,0,1,15.322,2.246,30.106,30.106,0,0,1,12.157,6.74l-5.285,10.041A30.672,30.672,0,0,0,833.854,442.677Zm157.657,39.488v137.95H978.56V587.609a59.216,59.216,0,0,1-22.983,24.842,64.857,64.857,0,0,1-33.562,8.722,68.592,68.592,0,0,1-34.892-8.986,64.312,64.312,0,0,1-24.443-24.842,73.019,73.019,0,0,1-8.853-36.206,73.766,73.766,0,0,1,8.853-36.329,63.169,63.169,0,0,1,24.443-24.85,69.416,69.416,0,0,1,34.884-8.853,63.641,63.641,0,0,1,33.167,8.721A62.086,62.086,0,0,1,978.3,514.142V482.165ZM922.8,609.277a54.881,54.881,0,0,0,28.42-7.4,53.111,53.111,0,0,0,19.821-20.611,66.073,66.073,0,0,0,0-60.255A53.11,53.11,0,0,0,951.221,500.4a58.28,58.28,0,0,0-56.841,0,53.148,53.148,0,0,0-19.821,20.613,66.072,66.072,0,0,0,0,60.253,53.144,53.144,0,0,0,19.821,20.614A54.894,54.894,0,0,0,922.8,609.277Zm157.755,11.893a71.625,71.625,0,0,1-35.941-8.984,64.488,64.488,0,0,1-24.84-24.973,77.432,77.432,0,0,1,0-72.411,63.581,63.581,0,0,1,24.84-24.842,72.465,72.465,0,0,1,35.941-8.853,69.533,69.533,0,0,1,30.259,6.475,54.614,54.614,0,0,1,22.067,18.9l-9.777,7.135a46.946,46.946,0,0,0-18.368-15.461A56.183,56.183,0,0,0,1080.559,493a57.651,57.651,0,0,0-28.949,7.268,51.678,51.678,0,0,0-20.085,20.48,67.2,67.2,0,0,0,0,60.8,51.657,51.657,0,0,0,20.085,20.468,57.607,57.607,0,0,0,28.947,7.266,56.113,56.113,0,0,0,24.187-5.153,46.943,46.943,0,0,0,18.36-15.459l9.776,7.135a54.609,54.609,0,0,1-22.066,18.9A69.533,69.533,0,0,1,1080.557,621.17Zm140.729-9.767a33.172,33.172,0,0,1-12.55,7.269,49.356,49.356,0,0,1-15.724,2.511q-17.97,0-27.749-9.91t-9.779-27.628V452.038H1168.7v30.126h43.871v11.368H1168.7v88.789q0,13.479,6.476,20.48t19.16,7a30.667,30.667,0,0,0,21.408-7.661Zm75.331,9.777a69.818,69.818,0,0,1-35.279-8.986,64.722,64.722,0,0,1-24.714-24.973,76.931,76.931,0,0,1,0-72.164,64.723,64.723,0,0,1,24.714-24.974,73.747,73.747,0,0,1,70.557,0,64.706,64.706,0,0,1,24.713,24.974,76.929,76.929,0,0,1,0,72.164,64.705,64.705,0,0,1-24.713,24.973,69.8,69.8,0,0,1-35.278,8.976Zm0-11.892a54.888,54.888,0,0,0,28.421-7.4,53.1,53.1,0,0,0,19.82-20.614,66.063,66.063,0,0,0,0-60.252,53.1,53.1,0,0,0-19.82-20.614,58.28,58.28,0,0,0-56.842,0,53.141,53.141,0,0,0-19.82,20.614,66.061,66.061,0,0,0,0,60.252,53.141,53.141,0,0,0,19.82,20.614,54.865,54.865,0,0,0,28.421,7.39ZM1400.6,512.3a47.744,47.744,0,0,1,19.82-23.125,62.773,62.773,0,0,1,32.769-8.059v12.95l-3.17-.264q-22.982,0-35.942,14.4t-12.948,40.036v71.873h-13.217V482.165H1400.6Zm196.353-30.126V605.313q0,34.354-15.322,50.74t-46.253,16.393a94.524,94.524,0,0,1-33.295-5.815,63.78,63.78,0,0,1-25.109-16.121l7.135-10.042a64.051,64.051,0,0,0,22.462,14.8,75.4,75.4,0,0,0,28.277,5.286q25.11,0,37-13.08t11.892-40.566V585.758a52.451,52.451,0,0,1-20.481,21.538,60.433,60.433,0,0,1-31.052,7.795q-26.953,0-42.283-15.075T1474.6,556.674v-74.51h13.207v73.467q0,23.254,11.893,35.412t33.561,12.157q23.258,0,36.867-14.534t13.609-39.112V482.165Z" transform="translate(64.761 -431.306)" fill="#fff"/>
  </g>
</svg>
