<svg id="iseazy-engage-logo-white" xmlns="http://www.w3.org/2000/svg" width="1746.999" height="191.544" viewBox="0 0 1746.999 191.544">
  <g id="Grupo_44" data-name="Grupo 44">
    <path id="Trazado_62-2" data-name="Trazado 62-2" d="M477.644,1195.768h37.016a4.206,4.206,0,0,1,4.136,3.081c1.844,7.635,9.745,10.96,18.978,10.96,9.829,0,17.409-4.493,17.409-10.951a9.845,9.845,0,0,0-6.458-9.266,169.317,169.317,0,0,0-26.4-7.585q-50.541-11.788-50.543-43.811,0-19.8,17.691-31.17c11.8-7.583,26.956-11.513,45.771-11.513,34.655,0,59.72,12.872,65.348,35.751a7.941,7.941,0,0,1-7.782,9.737H557.552a4.23,4.23,0,0,1-4.168-3.2c-1.733-7.675-8.822-11.388-17.02-11.388-8.7,0-16.008,3.931-16.008,10.671,0,8.984,9.268,12.355,33.7,16.847,34.538,6.741,51.949,20.794,51.949,42.4,0,14.32-6.188,25.551-18.253,33.973-12.072,8.145-28.08,12.358-48.021,12.358-37.816,0-64.17-13.226-69.881-37.129a7.969,7.969,0,0,1,5.958-9.563A8.136,8.136,0,0,1,477.644,1195.768Z" transform="translate(-413.885 -1095.009)" fill="#fff"/>
    <path id="Trazado_63-2" data-name="Trazado 63-2" d="M615.948,1221.6c-14.6-13.761-21.9-31.45-21.9-52.512,0-21.339,7.3-39.031,21.9-52.789,14.882-13.761,31.169-20.78,49.42-20.78,17.971,0,37.068,8.417,44.088,21.061h.561l1.186-10.327a7.675,7.675,0,0,1,7.629-6.8H745.85a7.674,7.674,0,0,1,7.674,7.408l.205,6.007q2.022,58.306-.126,116.646l-.064,1.82a7.673,7.673,0,0,1-7.674,7.393H718.829a7.668,7.668,0,0,1-7.626-6.8l-1.186-10.326h-.564A34.85,34.85,0,0,1,691.2,1237.04a64.56,64.56,0,0,1-25.835,5.333C647.116,1242.378,630.83,1235.366,615.948,1221.6Zm80.591-29.484a32.565,32.565,0,1,0-46.054-.012l.013.012a32.715,32.715,0,0,0,46.041,0Z" transform="translate(-230.349 -1095.003)" fill="#fff"/>
    <path id="Trazado_64-2" data-name="Trazado 64-2" d="M663.694,1228.9v-6.638a10.962,10.962,0,0,1,2.406-6.85l58.393-72.741a4.189,4.189,0,0,0-3.27-6.812H674.266a7.481,7.481,0,0,1-7.482-7.481V1104.59a7.481,7.481,0,0,1,7.48-7.484h113.08a7.483,7.483,0,0,1,7.483,7.484v7.115a9.73,9.73,0,0,1-2.083,6.021l-57.455,73.124a4.19,4.19,0,0,0,3.294,6.779H790.15a7.485,7.485,0,0,1,7.486,7.484V1228.9a7.483,7.483,0,0,1-7.486,7.482H671.172A7.482,7.482,0,0,1,663.694,1228.9Z" transform="translate(-127.597 -1092.658)" fill="#fff"/>
    <path id="Trazado_65-2" data-name="Trazado 65-2" d="M749.177,1252.55l18.886-33.56c4.059-7.322,3.8-12.848.161-20.325l-48.34-93.395a5.593,5.593,0,0,1,4.966-8.168h36.663a7.364,7.364,0,0,1,6.684,4.251l25.6,54.9a3.962,3.962,0,0,0,7.164,0l28.3-54.614a7.661,7.661,0,0,1,6.657-4.537H869.9a5.593,5.593,0,0,1,4.968,8.169l-77.415,150a10.23,10.23,0,0,1-8.943,5.518H754.1a5.593,5.593,0,0,1-4.926-8.245Z" transform="translate(-45.627 -1092.664)" fill="#fff"/>
    <g id="Grupo_33-2" data-name="Grupo 33-2">
      <path id="Trazado_66-2" data-name="Trazado 66-2" d="M448.613,1211.279l-.713-13.2c-1.084-31.411-1.045-37.968.119-69.374l.581-13.2a4.5,4.5,0,0,1,4.493-4.328h30.481a4.5,4.5,0,0,1,4.49,4.331l.634,12.6c1.131,31.374,1.143,40.38.032,71.75l-.668,11.422a4.494,4.494,0,0,1-4.493,4.338H453.1A4.5,4.5,0,0,1,448.613,1211.279Z" transform="translate(-447.116 -1071.898)" fill="#fff"/>
      <path id="Trazado_67-2" data-name="Trazado 67-2" d="M484.657,1122.519H484.6a130.4,130.4,0,0,1-33.645-.033l-.086-.015a3.832,3.832,0,0,1-3.446-3.883v-18.279a3.907,3.907,0,0,1,3.532-3.9h.03a130.193,130.193,0,0,1,33.607-.023l.208.027a3.921,3.921,0,0,1,3.532,3.9v18.276A4.028,4.028,0,0,1,484.657,1122.519Z" transform="translate(-446.659 -1095.309)" fill="#fff"/>
    </g>
    <path id="Trazado_68-2" data-name="Trazado 68-2" d="M578.113,1181.736h92.7a12.7,12.7,0,0,0,12.924-14.482,85.184,85.184,0,0,0-20.479-47.015c-14.322-16.57-33.134-24.711-56.722-24.711a80.092,80.092,0,0,0-56.436,21.619,69.763,69.763,0,0,0-22.744,52.515,67.875,67.875,0,0,0,23.305,52.229,82.942,82.942,0,0,0,56.437,20.778,86.053,86.053,0,0,0,45.211-12.355,71.334,71.334,0,0,0,15.8-12.744c.048-.037.11-.04.149-.084a55.889,55.889,0,0,0,10.973-15.932,5.942,5.942,0,0,0-5.3-8.58h-34.03a7.65,7.65,0,0,0-2.956.653l-.019.017a5.871,5.871,0,0,0-2.354,1.949q-7.5,10.573-26.9,10.574c-14.555,0-27.664-6.437-32.662-19.858a3.36,3.36,0,0,1,1.916-4.346A3.306,3.306,0,0,1,578.113,1181.736Zm-3.579-30.7c4.878-13.053,15.841-19.579,32-19.579,15.659,0,26.53,6.492,30.741,19.647a2.311,2.311,0,0,1-1.4,2.961,2.23,2.23,0,0,1-.74.137H576.646a2.309,2.309,0,0,1-2.272-2.347,2.336,2.336,0,0,1,.161-.81Z" transform="translate(-328.748 -1095.014)" fill="#fff"/>
  </g>
  <path id="Trazado_882" data-name="Trazado 882" d="M916.78,1168.727H801.5a56.024,56.024,0,0,0,7.961,27.856,50.938,50.938,0,0,0,20.166,18.873,60.653,60.653,0,0,0,28.617,6.674,61.318,61.318,0,0,0,24.258-4.75,47.215,47.215,0,0,0,18.614-13.992l7.446,8.473a57.2,57.2,0,0,1-21.951,16.176,76.536,76.536,0,0,1-64.313-3.082,63.31,63.31,0,0,1-24.521-24.134,69.31,69.31,0,0,1-8.857-35.173,72.864,72.864,0,0,1,8.345-35.047,61.539,61.539,0,0,1,22.979-24.257,66.434,66.434,0,0,1,65.6-.149,61.144,61.144,0,0,1,22.85,24.012,72.115,72.115,0,0,1,8.343,34.927ZM853.106,1108.9a51.327,51.327,0,0,0-25.419,6.292,47.922,47.922,0,0,0-18.112,17.714,57.77,57.77,0,0,0-7.82,25.8h102.7a53.719,53.719,0,0,0-7.7-25.675,49.86,49.86,0,0,0-43.647-24.134Zm153.793-11.3q25.163,0,39.8,14.634t14.634,42.107v78.308h-12.836v-77.28q0-22.594-11.426-34.408t-31.964-11.8q-23.622,0-37.229,14.109t-13.614,38v71.383H941.427V1098.633h12.325v29.014a51.022,51.022,0,0,1,20.669-22.081A63.691,63.691,0,0,1,1006.9,1097.606Zm212.847,1.026v119.645q0,33.376-16.176,49.3t-48.784,15.917a106.59,106.59,0,0,1-34.919-5.647,67.912,67.912,0,0,1-26.446-15.661l6.932-9.759a70.733,70.733,0,0,0,24.134,14.38,87.285,87.285,0,0,0,30.041,5.133q26.7,0,39.54-12.707t12.84-39.418v-22.588a56.907,56.907,0,0,1-22.849,22.588,67.64,67.64,0,0,1-32.865,7.965,69.772,69.772,0,0,1-34.018-8.343,61.47,61.47,0,0,1-24.01-23.236,69.148,69.148,0,0,1,0-67.268,60.533,60.533,0,0,1,24.01-23.107,70.694,70.694,0,0,1,34.018-8.216,67.912,67.912,0,0,1,33.376,8.216,56.063,56.063,0,0,1,22.85,23.107v-30.3Zm-67.526,117.593a58.4,58.4,0,0,0,28.243-6.81,49.379,49.379,0,0,0,19.642-19,54.567,54.567,0,0,0,7.059-27.858,53.867,53.867,0,0,0-7.059-27.722,49.622,49.622,0,0,0-19.642-18.872,58.383,58.383,0,0,0-28.243-6.806,57.684,57.684,0,0,0-28.115,6.806,49.86,49.86,0,0,0-19.513,18.872,53.906,53.906,0,0,0-7.06,27.722,54.6,54.6,0,0,0,7.06,27.858,49.6,49.6,0,0,0,19.513,19A57.671,57.671,0,0,0,1152.22,1216.226Zm225.687-117.593v134.023h-12.58v-31.579a57.532,57.532,0,0,1-22.338,24.135,62.989,62.989,0,0,1-32.612,8.462,66.65,66.65,0,0,1-33.892-8.73,62.5,62.5,0,0,1-23.75-24.134,70.947,70.947,0,0,1-8.6-35.174,71.662,71.662,0,0,1,8.6-35.3,61.361,61.361,0,0,1,23.75-24.135,67.435,67.435,0,0,1,33.892-8.6,61.847,61.847,0,0,1,32.222,8.473,60.329,60.329,0,0,1,22.468,23.642v-31.078Zm-66.76,123.5a53.313,53.313,0,0,0,27.6-7.178A51.621,51.621,0,0,0,1358,1194.923a64.213,64.213,0,0,0,0-58.541,51.609,51.609,0,0,0-19.256-20.026,56.641,56.641,0,0,0-55.2,0,51.625,51.625,0,0,0-19.256,20.026,64.2,64.2,0,0,0,0,58.533,51.622,51.622,0,0,0,19.255,20.027A53.322,53.322,0,0,0,1311.146,1222.129Zm226.2-123.5v119.645q0,33.376-16.175,49.3t-48.784,15.917a106.59,106.59,0,0,1-34.919-5.647,67.925,67.925,0,0,1-26.446-15.661l6.93-9.759a70.74,70.74,0,0,0,24.135,14.38,87.277,87.277,0,0,0,30.04,5.133q26.7,0,39.541-12.707t12.843-39.418v-22.588a56.9,56.9,0,0,1-22.851,22.588,67.613,67.613,0,0,1-32.864,7.958,69.763,69.763,0,0,1-34.019-8.336,61.474,61.474,0,0,1-24.011-23.236,69.163,69.163,0,0,1,0-67.268,60.549,60.549,0,0,1,24.011-23.107,70.7,70.7,0,0,1,34.019-8.216,67.905,67.905,0,0,1,33.374,8.216,56.058,56.058,0,0,1,22.849,23.107v-30.3Zm-67.523,117.593a58.4,58.4,0,0,0,28.243-6.81,49.369,49.369,0,0,0,19.642-19,54.575,54.575,0,0,0,7.06-27.858,53.865,53.865,0,0,0-7.06-27.722,49.607,49.607,0,0,0-19.642-18.872,58.384,58.384,0,0,0-28.243-6.806,57.683,57.683,0,0,0-28.115,6.806,49.858,49.858,0,0,0-19.514,18.872,53.888,53.888,0,0,0-7.059,27.722,54.6,54.6,0,0,0,7.059,27.858,49.6,49.6,0,0,0,19.514,19A57.67,57.67,0,0,0,1469.82,1216.226Zm219.777-47.5h-115.28a56.04,56.04,0,0,0,7.958,27.856,50.938,50.938,0,0,0,20.154,18.873,60.621,60.621,0,0,0,28.627,6.684,61.334,61.334,0,0,0,24.259-4.751,47.209,47.209,0,0,0,18.614-13.992l7.452,8.463a57.2,57.2,0,0,1-21.953,16.176,76.537,76.537,0,0,1-64.314-3.082,63.311,63.311,0,0,1-24.52-24.134,69.311,69.311,0,0,1-8.857-35.173,72.865,72.865,0,0,1,8.346-35.047,61.531,61.531,0,0,1,22.978-24.257,66.431,66.431,0,0,1,65.6-.149,61.137,61.137,0,0,1,22.85,24.012,72.1,72.1,0,0,1,8.344,34.92Zm-63.665-59.824a51.328,51.328,0,0,0-25.418,6.292,47.908,47.908,0,0,0-18.1,17.714,57.714,57.714,0,0,0-7.832,25.8h102.7a53.765,53.765,0,0,0-7.7-25.675,49.86,49.86,0,0,0-43.646-24.134Z" transform="translate(57.137 -1091.949)" fill="#fff"/>
</svg>
