<svg id="iseazy-game-logo" xmlns="http://www.w3.org/2000/svg" width="1533.88" height="191.733" viewBox="0 0 1533.88 191.733">
  <g id="Grupo_45" data-name="Grupo 45">
    <path id="Trazado_62-3" data-name="Trazado 62-3" d="M477.588,1408.871h36.759a4.18,4.18,0,0,1,4.106,3.083c1.832,7.644,9.678,10.973,18.847,10.973,9.761,0,17.287-4.5,17.287-10.964a9.851,9.851,0,0,0-6.413-9.274,167.191,167.191,0,0,0-26.214-7.592q-50.19-11.8-50.193-43.857,0-19.819,17.568-31.2c11.713-7.589,26.769-11.525,45.453-11.525,34.414,0,59.3,12.887,64.9,35.788a7.952,7.952,0,0,1-5.9,9.542,7.755,7.755,0,0,1-1.827.2H556.941a4.2,4.2,0,0,1-4.139-3.2c-1.721-7.68-8.761-11.4-16.9-11.4-8.642,0-15.9,3.933-15.9,10.678,0,8.994,9.2,12.371,33.465,16.868,34.3,6.747,51.589,20.813,51.589,42.443,0,14.336-6.146,25.578-18.126,34.013-11.989,8.15-27.885,12.368-47.688,12.368-37.552,0-63.724-13.24-69.395-37.167a7.981,7.981,0,0,1,5.917-9.573A7.826,7.826,0,0,1,477.588,1408.871Z" transform="translate(-414.273 -1308.007)" fill="#333"/>
    <path id="Trazado_63-3" data-name="Trazado 63-3" d="M615.8,1434.723c-14.5-13.771-21.75-31.479-21.75-52.563,0-21.361,7.25-39.068,21.75-52.844,14.777-13.771,30.953-20.8,49.077-20.8,17.845,0,36.81,8.424,43.78,21.081h.559l1.178-10.337a7.645,7.645,0,0,1,7.575-6.81H744.8a7.651,7.651,0,0,1,7.621,7.416l.2,6.014q2.008,58.364-.127,116.767l-.064,1.82a7.65,7.65,0,0,1-7.62,7.4H717.964a7.639,7.639,0,0,1-7.574-6.809l-1.178-10.339h-.56a34.682,34.682,0,0,1-18.126,15.46,63.665,63.665,0,0,1-25.655,5.34C646.749,1455.524,630.573,1448.507,615.8,1434.723Zm80.031-29.512a32.782,32.782,0,0,0,.015-46.1,32.159,32.159,0,0,0-45.735-.016,32.785,32.785,0,0,0-.014,46.1l.014.015a32.3,32.3,0,0,0,45.72,0Z" transform="translate(-232.875 -1307.999)" fill="#333"/>
    <path id="Trazado_64-3" data-name="Trazado 64-3" d="M663.694,1442.029v-6.644a11.012,11.012,0,0,1,2.39-6.857l57.986-72.812a4.215,4.215,0,0,0-.639-5.9,4.134,4.134,0,0,0-2.607-.923H674.193a7.459,7.459,0,0,1-7.431-7.488V1317.6a7.46,7.46,0,0,1,7.429-7.491H786.484a7.464,7.464,0,0,1,7.432,7.491v7.124a9.805,9.805,0,0,1-2.07,6.029l-57.056,73.2a4.219,4.219,0,0,0,.7,5.889,4.131,4.131,0,0,0,2.572.9h51.21a7.463,7.463,0,0,1,7.433,7.49v23.807a7.461,7.461,0,0,1-7.433,7.49H671.12A7.461,7.461,0,0,1,663.694,1442.029Z" transform="translate(-131.319 -1305.654)" fill="#333"/>
    <path id="Trazado_65-3" data-name="Trazado 65-3" d="M748.97,1465.707l18.755-33.594c4.031-7.329,3.771-12.861.159-20.344l-48-93.488a5.623,5.623,0,0,1,2.369-7.549,5.543,5.543,0,0,1,2.562-.63h36.41a7.31,7.31,0,0,1,6.636,4.26l25.426,54.956a3.922,3.922,0,0,0,7.115,0l28.105-54.668a7.609,7.609,0,0,1,6.612-4.542h33.739a5.574,5.574,0,0,1,5.559,5.6,5.633,5.633,0,0,1-.625,2.58l-76.877,150.156a10.156,10.156,0,0,1-8.881,5.524H753.862a5.574,5.574,0,0,1-5.557-5.6A5.667,5.667,0,0,1,748.97,1465.707Z" transform="translate(-50.305 -1305.657)" fill="#333"/>
    <g id="Grupo_33-3" data-name="Grupo 33-3">
      <path id="Trazado_66-3" data-name="Trazado 66-3" d="M448.6,1424.38l-.708-13.216c-1.077-31.442-1.037-38.005.118-69.442l.577-13.214a4.483,4.483,0,0,1,4.462-4.33h30.27a4.48,4.48,0,0,1,4.458,4.334l.629,12.617c1.123,31.4,1.136,40.418.032,71.82l-.664,11.437a4.479,4.479,0,0,1-4.461,4.34H453.062A4.479,4.479,0,0,1,448.6,1424.38Z" transform="translate(-447.116 -1284.86)" fill="#333"/>
      <path id="Trazado_67-3" data-name="Trazado 67-3" d="M484.4,1335.545h-.054a128.475,128.475,0,0,1-33.411-.033l-.086-.016a3.823,3.823,0,0,1-3.421-3.886v-18.3a3.9,3.9,0,0,1,3.507-3.9h.029a128.258,128.258,0,0,1,33.375-.024l.207.026a3.913,3.913,0,0,1,3.507,3.9v18.3A4.018,4.018,0,0,1,484.4,1335.545Z" transform="translate(-446.664 -1308.309)" fill="#333"/>
    </g>
    <path id="Trazado_68-3" data-name="Trazado 68-3" d="M577.76,1394.824h92.057a12.725,12.725,0,0,0,12.834-14.495,85.607,85.607,0,0,0-20.337-47.066c-14.222-16.586-32.9-24.737-56.327-24.737a79.2,79.2,0,0,0-56.046,21.643,70.092,70.092,0,0,0-22.585,52.567,68.183,68.183,0,0,0,23.143,52.281,81.98,81.98,0,0,0,56.045,20.8,84.974,84.974,0,0,0,44.9-12.369,70.992,70.992,0,0,0,15.688-12.756c.047-.037.107-.04.147-.086a55.812,55.812,0,0,0,10.9-15.948,5.964,5.964,0,0,0-2.663-7.966,5.886,5.886,0,0,0-2.6-.62H639.113a7.522,7.522,0,0,0-2.934.655l-.021.016a5.834,5.834,0,0,0-2.336,1.951q-7.45,10.579-26.716,10.582c-14.454,0-27.471-6.443-32.434-19.877a3.371,3.371,0,0,1,1.9-4.351A3.243,3.243,0,0,1,577.76,1394.824Zm-3.555-30.725c4.846-13.069,15.731-19.6,31.782-19.6,15.55,0,26.346,6.5,30.528,19.667a2.321,2.321,0,0,1-1.39,2.965,2.219,2.219,0,0,1-.734.137H576.3a2.3,2.3,0,0,1-2.257-2.348,2.416,2.416,0,0,1,.16-.814Z" transform="translate(-330.127 -1308.009)" fill="#333"/>
  </g>
  <path id="Trazado_883" data-name="Trazado 883" d="M923.285,1311.64V1431.4q0,33.409-16.064,49.347t-48.444,15.935a105.123,105.123,0,0,1-34.677-5.656,67.289,67.289,0,0,1-26.26-15.675l6.883-9.769a70.159,70.159,0,0,0,23.967,14.4,86.087,86.087,0,0,0,29.83,5.138q26.519,0,39.266-12.72t12.75-39.457v-22.61a56.734,56.734,0,0,1-22.694,22.61,66.725,66.725,0,0,1-32.636,7.972,68.849,68.849,0,0,1-33.78-8.352,61.261,61.261,0,0,1-23.845-23.259,69.72,69.72,0,0,1,.005-67.338,60.365,60.365,0,0,1,23.843-23.13,69.778,69.778,0,0,1,33.777-8.223,67.061,67.061,0,0,1,33.146,8.223,55.932,55.932,0,0,1,22.69,23.13V1311.64Zm-67.058,117.712a57.643,57.643,0,0,0,28.047-6.817,49.217,49.217,0,0,0,19.506-19.019,54.982,54.982,0,0,0,7.01-27.887,54.26,54.26,0,0,0-7.01-27.751,49.447,49.447,0,0,0-19.506-18.892,57.609,57.609,0,0,0-28.047-6.8,56.971,56.971,0,0,0-27.919,6.8,49.729,49.729,0,0,0-19.37,18.892,54.283,54.283,0,0,0-7.01,27.751,54.984,54.984,0,0,0,7.01,27.89,49.442,49.442,0,0,0,19.37,19.016A56.961,56.961,0,0,0,856.227,1429.352Zm224.116-117.712V1445.8h-12.491v-31.614a57.38,57.38,0,0,1-22.183,24.158,62.171,62.171,0,0,1-32.384,8.469,65.752,65.752,0,0,1-33.652-8.727,62.31,62.31,0,0,1-23.587-24.158,77.108,77.108,0,0,1,0-70.548,61.192,61.192,0,0,1,23.587-24.158,66.515,66.515,0,0,1,33.652-8.612,61.056,61.056,0,0,1,32,8.483,60.172,60.172,0,0,1,22.311,23.653V1311.64Zm-66.291,123.62a52.606,52.606,0,0,0,27.409-7.186,51.473,51.473,0,0,0,19.121-20.048,64.741,64.741,0,0,0,0-58.6,51.477,51.477,0,0,0-19.121-20.042,55.877,55.877,0,0,0-54.816,0,51.487,51.487,0,0,0-19.123,20.042,64.741,64.741,0,0,0,0,58.6,51.512,51.512,0,0,0,19.123,20.048A52.6,52.6,0,0,0,1014.052,1435.26Zm265.616-124.648q24.733,0,38.882,14.647t14.152,42.15V1445.8h-12.748v-77.363q0-22.612-10.964-34.44t-30.608-11.813q-22.436,0-35.57,14.123t-13.13,38.035V1445.8h-12.75v-77.363q0-22.612-10.963-34.44t-30.6-11.813q-22.437,0-35.569,14.123t-13.131,38.035V1445.8h-12.748V1311.64h12.238v28.785a49.419,49.419,0,0,1,19.762-21.973,59.753,59.753,0,0,1,31.237-7.841,55.065,55.065,0,0,1,30.727,8.223,44.717,44.717,0,0,1,17.975,24.158,52.189,52.189,0,0,1,20.783-23.645A61.593,61.593,0,0,1,1279.668,1310.611Zm202.7,71.192H1367.875a56.393,56.393,0,0,0,7.906,27.884,50.739,50.739,0,0,0,20.014,18.893,59.765,59.765,0,0,0,28.427,6.689,60.48,60.48,0,0,0,24.091-4.755,46.928,46.928,0,0,0,18.485-14.005l7.4,8.481a56.858,56.858,0,0,1-21.8,16.193,75.524,75.524,0,0,1-63.873-3.1,63.121,63.121,0,0,1-24.35-24.162,69.788,69.788,0,0,1-8.8-35.209,73.421,73.421,0,0,1,8.286-35.081,61.425,61.425,0,0,1,22.82-24.283,65.54,65.54,0,0,1,65.152-.136,60.961,60.961,0,0,1,22.689,24.036,72.648,72.648,0,0,1,8.291,34.962Zm-63.245-59.883a50.689,50.689,0,0,0-25.243,6.3,47.791,47.791,0,0,0-17.976,17.732,58.13,58.13,0,0,0-7.778,25.828h101.988a54.1,54.1,0,0,0-7.649-25.7,49.44,49.44,0,0,0-43.342-24.157Z" transform="translate(51.258 -1304.955)" fill="#333"/>
</svg>
